<?xml version="1.0" encoding="UTF-8" standalone="no"?>
<!-- Created with Inkscape (http://www.inkscape.org/) -->

<svg
   xmlns:dc="http://purl.org/dc/elements/1.1/"
   xmlns:cc="http://creativecommons.org/ns#"
   xmlns:rdf="http://www.w3.org/1999/02/22-rdf-syntax-ns#"
   xmlns:svg="http://www.w3.org/2000/svg"
   xmlns="http://www.w3.org/2000/svg"
   xmlns:xlink="http://www.w3.org/1999/xlink"
   xmlns:sodipodi="http://sodipodi.sourceforge.net/DTD/sodipodi-0.dtd"
   xmlns:inkscape="http://www.inkscape.org/namespaces/inkscape"
   width="32"
   height="32"
   viewBox="0 0 32.000002 32"
   id="svg2"
   version="1.1"
   inkscape:version="0.91 r13725"
   sodipodi:docname="boxes.svg"
   inkscape:export-xdpi="90"
   inkscape:export-ydpi="90"
   inkscape:export-filename="/home/hawkwing/.factorio/mods/boxing-2_2.0.5/graphics/icons/wooden-front.png">
  <sodipodi:namedview
     id="base"
     pagecolor="#ffffff"
     bordercolor="#666666"
     borderopacity="1.0"
     inkscape:pageopacity="0.0"
     inkscape:pageshadow="2"
     inkscape:zoom="15.839192"
     inkscape:cx="10.492251"
     inkscape:cy="22.309507"
     inkscape:document-units="px"
     inkscape:current-layer="layer5"
     showgrid="true"
     units="px"
     inkscape:window-width="1920"
     inkscape:window-height="1027"
     inkscape:window-x="0"
     inkscape:window-y="0"
     inkscape:window-maximized="1"
     showguides="false"
     objecttolerance="10000"
     inkscape:snap-global="true"
     inkscape:snap-bbox="false"
     inkscape:object-paths="true"
     inkscape:snap-intersection-paths="true"
     inkscape:snap-smooth-nodes="true"
     inkscape:object-nodes="true"
     inkscape:snap-midpoints="true">
    <inkscape:grid
       type="xygrid"
       id="grid3660" />
  </sodipodi:namedview>
  <defs
     id="defs4">
    <linearGradient
       inkscape:collect="always"
       id="linearGradient5766">
      <stop
         style="stop-color:#000000;stop-opacity:1;"
         offset="0"
         id="stop5768" />
      <stop
         style="stop-color:#000000;stop-opacity:0;"
         offset="1"
         id="stop5770" />
    </linearGradient>
    <linearGradient
       inkscape:collect="always"
       id="linearGradient4996">
      <stop
         style="stop-color:#000000;stop-opacity:1;"
         offset="0"
         id="stop4998" />
      <stop
         style="stop-color:#000000;stop-opacity:0;"
         offset="1"
         id="stop5000" />
    </linearGradient>
    <linearGradient
       inkscape:collect="always"
       xlink:href="#linearGradient4996"
       id="linearGradient5002"
       x1="0.99999923"
       y1="1032.3622"
       x2="0.99999923"
       y2="1025.3622"
       gradientUnits="userSpaceOnUse" />
    <linearGradient
       gradientTransform="translate(24.000004,-1.0816849e-4)"
       inkscape:collect="always"
       xlink:href="#linearGradient4996"
       id="linearGradient5002-5"
       x1="0.99999923"
       y1="1032.3622"
       x2="0.99999923"
       y2="1025.3622"
       gradientUnits="userSpaceOnUse" />
    <linearGradient
       inkscape:collect="always"
       xlink:href="#linearGradient4996"
       id="linearGradient5333"
       x1="2.9999995"
       y1="1042.3622"
       x2="7.0000005"
       y2="1042.3622"
       gradientUnits="userSpaceOnUse" />
    <linearGradient
       gradientTransform="translate(-32.000003,-1.5664654e-4)"
       inkscape:collect="always"
       xlink:href="#linearGradient4996"
       id="linearGradient5333-1"
       x1="2.9999995"
       y1="1042.3622"
       x2="7.0000005"
       y2="1042.3622"
       gradientUnits="userSpaceOnUse" />
    <linearGradient
       inkscape:collect="always"
       xlink:href="#linearGradient5766"
       id="linearGradient5764"
       x1="16.000002"
       y1="1033.3622"
       x2="16.000002"
       y2="1022.3622"
       gradientUnits="userSpaceOnUse" />
    <filter
       inkscape:collect="always"
       style="color-interpolation-filters:sRGB"
       id="filter4702"
       x="-1.0200076"
       width="3.0400152"
       y="-0.063749972"
       height="1.1274999">
      <feGaussianBlur
         inkscape:collect="always"
         stdDeviation="0.42500417"
         id="feGaussianBlur4704" />
    </filter>
    <filter
       inkscape:collect="always"
       style="color-interpolation-filters:sRGB"
       id="filter4710"
       x="-1.0199981"
       width="3.0399962"
       y="-0.063750009"
       height="1.1275">
      <feGaussianBlur
         inkscape:collect="always"
         stdDeviation="0.42500011"
         id="feGaussianBlur4712" />
    </filter>
  </defs>
  <metadata
     id="metadata7">
    <rdf:RDF>
      <cc:Work
         rdf:about="">
        <dc:format>image/svg+xml</dc:format>
        <dc:type
           rdf:resource="http://purl.org/dc/dcmitype/StillImage" />
        <dc:title></dc:title>
      </cc:Work>
    </rdf:RDF>
  </metadata>
  <g
     inkscape:groupmode="layer"
     id="layer5"
     inkscape:label="Tungsten-Front"
     style="display:inline">
    <path
       style="display:inline;fill:#191919;fill-opacity:1;stroke:#a68156;stroke-width:0;stroke-linejoin:miter;stroke-miterlimit:4;stroke-dasharray:none;stroke-opacity:1"
       d="M 3,2 3,30 29,30 29,2 27,2 27,13 5,13 5,2 3,2 Z"
       transform="translate(-9.5367449e-7,-1.9073489e-6)"
       id="rect3666-6"
       inkscape:connector-curvature="0" />
  </g>
  <g
     style="display:inline"
     inkscape:label="Tungsten-Back"
     id="g6295"
     inkscape:groupmode="layer">
    <path
       style="display:inline;fill:#191919;fill-opacity:1;stroke:#a68156;stroke-width:0;stroke-linejoin:miter;stroke-miterlimit:4;stroke-dasharray:none;stroke-opacity:1"
       d="M 5,2 5,13 27,13 27,2 5,2 Z"
       transform="translate(-9.5367449e-7,-1.9073489e-6)"
       id="rect6297"
       inkscape:connector-curvature="0" />
  </g>
  <g
     inkscape:groupmode="layer"
     id="g6285"
     inkscape:label="Steel-Front"
     style="display:inline">
    <path
       style="fill:#81837a;fill-opacity:1;stroke:#a68156;stroke-width:0;stroke-linejoin:miter;stroke-miterlimit:4;stroke-dasharray:none;stroke-opacity:1"
       d="M 3,2 3,30 29,30 29,2 27,2 27,13 5,13 5,2 3,2 Z"
       transform="translate(-9.5367449e-7,-1.9073489e-6)"
       id="rect6287"
       inkscape:connector-curvature="0" />
  </g>
  <g
     style="display:inline"
     inkscape:label="Steel-Back"
     id="g6281"
     inkscape:groupmode="layer">
    <path
       style="fill:#81837a;fill-opacity:1;stroke:#a68156;stroke-width:0;stroke-linejoin:miter;stroke-miterlimit:4;stroke-dasharray:none;stroke-opacity:1"
       d="M 5,2 5,13 27,13 27,2 5,2 Z"
       transform="translate(-9.5367449e-7,-1.9073489e-6)"
       id="rect6283"
       inkscape:connector-curvature="0" />
  </g>
  <g
     inkscape:groupmode="layer"
     id="layer3"
     inkscape:label="Wooden-Front"
     style="display:inline">
    <path
       style="display:inline;fill:#3b2f21;fill-opacity:1;stroke:#a68156;stroke-width:0;stroke-linejoin:miter;stroke-miterlimit:4;stroke-dasharray:none;stroke-opacity:1"
       d="M 3,2 3,30 29,30 29,2 27,2 27,13 5,13 5,2 3,2 Z"
       transform="translate(-9.5367449e-7,-1.9073489e-6)"
       id="rect3666-3"
       inkscape:connector-curvature="0" />
  </g>
  <g
     style="display:inline"
     inkscape:label="Wooden-Back"
     id="g6258"
     inkscape:groupmode="layer">
    <path
       style="display:inline;fill:#3b2f21;fill-opacity:1;stroke:#a68156;stroke-width:0;stroke-linejoin:miter;stroke-miterlimit:4;stroke-dasharray:none;stroke-opacity:1"
       d="M 5,2 5,13 27,13 27,2 5,2 Z"
       transform="translate(-9.5367449e-7,-1.9073489e-6)"
       id="rect6260"
       inkscape:connector-curvature="0" />
  </g>
  <g
     inkscape:groupmode="layer"
     id="layer2"
     inkscape:label="Front"
     style="display:inline">
    <rect
       style="fill:#000000;fill-opacity:0.50196078;stroke:#a68156;stroke-width:0;stroke-linecap:butt;stroke-linejoin:miter;stroke-miterlimit:4;stroke-dasharray:none;stroke-opacity:1;filter:url(#filter4710)"
       id="rect4474"
       width="1.0000021"
       height="16.000002"
       x="9.999999"
       y="14" />
    <rect
       style="fill:#000000;fill-opacity:0.50196078;stroke:#a68156;stroke-width:0;stroke-linejoin:miter;stroke-miterlimit:4;stroke-dasharray:none;stroke-opacity:1;filter:url(#filter4702)"
       id="rect4474-3"
       width="1.0000024"
       height="16.000164"
       x="21.000008"
       y="13.999839" />
    <rect
       transform="translate(9.5367432e-7,-1020.3621)"
       style="opacity:0.5;fill:#000000;fill-opacity:1;stroke:#a68156;stroke-width:0;stroke-linejoin:miter;stroke-miterlimit:4;stroke-dasharray:none;stroke-opacity:1"
       id="rect4472"
       width="25.999994"
       height="1"
       x="3.0000045"
       y="1033.3619" />
    <rect
       transform="translate(9.5367432e-7,-1020.3621)"
       style="opacity:0.5;fill:url(#linearGradient5002);fill-opacity:1"
       id="rect4994"
       width="2"
       height="11"
       x="2.999999"
       y="1022.3622" />
    <rect
       transform="translate(9.5367432e-7,-1020.3621)"
       style="opacity:0.5;fill:url(#linearGradient5002-5);fill-opacity:1"
       id="rect4994-9"
       width="2.0000005"
       height="11.000001"
       x="27.000004"
       y="1022.3622" />
    <rect
       transform="translate(9.5367432e-7,-1020.3621)"
       style="opacity:0.25;fill:url(#linearGradient5333);fill-opacity:1"
       id="rect5317"
       width="7"
       height="16"
       x="2.999999"
       y="1034.3622" />
    <rect
       style="opacity:0.25;fill:url(#linearGradient5333-1);fill-opacity:1"
       id="rect5317-0"
       width="7.0000014"
       height="16.000002"
       x="-29.000004"
       y="1034.3622"
       transform="matrix(-0.99999982,0,0,0.99999988,9.5367432e-7,-1020.3621)" />
  </g>
  <g
     transform="translate(0,-1020.3622)"
     id="layer1"
     inkscape:groupmode="layer"
     inkscape:label="Back"
     style="display:inline">
    <path
       id="path3366"
       style="fill:none;fill-opacity:0.75;fill-rule:evenodd;stroke:#000000;stroke-width:1pt;stroke-linecap:butt;stroke-linejoin:miter;stroke-opacity:1"
       d="m 1.3309013,0.43778965 0,8.00793215 m 1,-8.00793215 0,8.00793215 m 1,-8.00793215 0,8.00793215 m 1,-8.00793215 0,8.00793215 m 1,-8.00793215 0,8.00793215 m -4,-8.00793215 4.7619992,0 m -4.7619992,0.99999995 4.7619992,0 m -4.7619992,1 4.7619992,0 m -4.7619992,1 4.7619992,0 m -4.7619992,1 4.7619992,0 m -4.7619992,1 4.7619992,0 m -4.7619992,1 4.7619992,0 m -4.7619992,1 4.7619992,0 m -4.7619992,1 4.7619992,0"
       inkscape:connector-curvature="0" />
    <path
       id="path3368"
       style="fill:none;fill-opacity:0.75;fill-rule:evenodd;stroke:#000000;stroke-width:1pt;stroke-linecap:butt;stroke-linejoin:miter;stroke-opacity:1"
       d="m 1.3309013,0.43778965 0,8.00793215 m 1,-8.00793215 0,8.00793215 m 1,-8.00793215 0,8.00793215 m 1,-8.00793215 0,8.00793215 m 1,-8.00793215 0,8.00793215 m -4,-8.00793215 4.7619992,0 m -4.7619992,0.99999995 4.7619992,0 m -4.7619992,1 4.7619992,0 m -4.7619992,1 4.7619992,0 m -4.7619992,1 4.7619992,0 m -4.7619992,1 4.7619992,0 m -4.7619992,1 4.7619992,0 m -4.7619992,1 4.7619992,0 m -4.7619992,1 4.7619992,0"
       inkscape:connector-curvature="0" />
    <path
       id="path3370"
       style="fill:none;fill-opacity:0.75;fill-rule:evenodd;stroke:#000000;stroke-width:1pt;stroke-linecap:butt;stroke-linejoin:miter;stroke-opacity:1"
       d="m 1.3309013,0.43778965 0,8.00793215 m 1,-8.00793215 0,8.00793215 m 1,-8.00793215 0,8.00793215 m 1,-8.00793215 0,8.00793215 m 1,-8.00793215 0,8.00793215 m -4,-8.00793215 4.7619992,0 m -4.7619992,0.99999995 4.7619992,0 m -4.7619992,1 4.7619992,0 m -4.7619992,1 4.7619992,0 m -4.7619992,1 4.7619992,0 m -4.7619992,1 4.7619992,0 m -4.7619992,1 4.7619992,0 m -4.7619992,1 4.7619992,0 m -4.7619992,1 4.7619992,0"
       inkscape:connector-curvature="0" />
    <g
       id="g3381"
       inkscape:label="Grid_Polar:X6:Y5"
       transform="translate(-291.8784,-230.71369)">
      <g
         id="g3383"
         inkscape:label="MajorXGridlines">
        <path
           id="path3385"
           inkscape:label="MajorXDiv1"
           style="fill:none;stroke:#000000;stroke-width:2"
           d="m 100,0 0,500"
           inkscape:connector-curvature="0" />
        <path
           id="path3387"
           inkscape:label="MajorXDiv2"
           style="fill:none;stroke:#000000;stroke-width:2"
           d="m 200,0 0,500"
           inkscape:connector-curvature="0" />
        <path
           id="path3389"
           inkscape:label="MajorXDiv3"
           style="fill:none;stroke:#000000;stroke-width:2"
           d="m 300,0 0,500"
           inkscape:connector-curvature="0" />
        <path
           id="path3391"
           inkscape:label="MajorXDiv4"
           style="fill:none;stroke:#000000;stroke-width:2"
           d="m 400,0 0,500"
           inkscape:connector-curvature="0" />
        <path
           id="path3393"
           inkscape:label="MajorXDiv5"
           style="fill:none;stroke:#000000;stroke-width:2"
           d="m 500,0 0,500"
           inkscape:connector-curvature="0" />
      </g>
      <g
         id="g3395"
         inkscape:label="MajorYGridlines">
        <path
           id="path3397"
           inkscape:label="MajorYDiv1"
           style="fill:none;stroke:#000000;stroke-width:2"
           d="m 0,100 600,0"
           inkscape:connector-curvature="0" />
        <path
           id="path3399"
           inkscape:label="MajorYDiv2"
           style="fill:none;stroke:#000000;stroke-width:2"
           d="m 0,200 600,0"
           inkscape:connector-curvature="0" />
        <path
           id="path3401"
           inkscape:label="MajorYDiv3"
           style="fill:none;stroke:#000000;stroke-width:2"
           d="m 0,300 600,0"
           inkscape:connector-curvature="0" />
        <path
           id="path3403"
           inkscape:label="MajorYDiv4"
           style="fill:none;stroke:#000000;stroke-width:2"
           d="m 0,400 600,0"
           inkscape:connector-curvature="0" />
      </g>
      <g
         id="g3405"
         inkscape:label="MinorXGridlines">
        <path
           id="path3407"
           inkscape:label="MinorXDiv0:1"
           style="fill:none;stroke:#000000;stroke-width:1"
           d="m 50,0 0,500"
           inkscape:connector-curvature="0" />
        <path
           id="path3409"
           inkscape:label="MinorXDiv1:1"
           style="fill:none;stroke:#000000;stroke-width:1"
           d="m 150,0 0,500"
           inkscape:connector-curvature="0" />
        <path
           id="path3411"
           inkscape:label="MinorXDiv2:1"
           style="fill:none;stroke:#000000;stroke-width:1"
           d="m 250,0 0,500"
           inkscape:connector-curvature="0" />
        <path
           id="path3413"
           inkscape:label="MinorXDiv3:1"
           style="fill:none;stroke:#000000;stroke-width:1"
           d="m 350,0 0,500"
           inkscape:connector-curvature="0" />
        <path
           id="path3415"
           inkscape:label="MinorXDiv4:1"
           style="fill:none;stroke:#000000;stroke-width:1"
           d="m 450,0 0,500"
           inkscape:connector-curvature="0" />
        <path
           id="path3417"
           inkscape:label="MinorXDiv5:1"
           style="fill:none;stroke:#000000;stroke-width:1"
           d="m 550,0 0,500"
           inkscape:connector-curvature="0" />
      </g>
      <g
         id="g3419"
         inkscape:label="SubMinorXGridlines">
        <path
           id="path3421"
           inkscape:label="SubminorXDiv0:0:1"
           style="fill:none;stroke:#000000;stroke-width:0.30000001"
           d="m 10,0 0,500"
           inkscape:connector-curvature="0" />
        <path
           id="path3423"
           inkscape:label="SubminorXDiv0:0:2"
           style="fill:none;stroke:#000000;stroke-width:0.30000001"
           d="m 20,0 0,500"
           inkscape:connector-curvature="0" />
        <path
           id="path3425"
           inkscape:label="SubminorXDiv0:0:3"
           style="fill:none;stroke:#000000;stroke-width:0.30000001"
           d="m 30,0 0,500"
           inkscape:connector-curvature="0" />
        <path
           id="path3427"
           inkscape:label="SubminorXDiv0:0:4"
           style="fill:none;stroke:#000000;stroke-width:0.30000001"
           d="m 40,0 0,500"
           inkscape:connector-curvature="0" />
        <path
           id="path3429"
           inkscape:label="SubminorXDiv0:1:1"
           style="fill:none;stroke:#000000;stroke-width:0.30000001"
           d="m 60,0 0,500"
           inkscape:connector-curvature="0" />
        <path
           id="path3431"
           inkscape:label="SubminorXDiv0:1:2"
           style="fill:none;stroke:#000000;stroke-width:0.30000001"
           d="m 70,0 0,500"
           inkscape:connector-curvature="0" />
        <path
           id="path3433"
           inkscape:label="SubminorXDiv0:1:3"
           style="fill:none;stroke:#000000;stroke-width:0.30000001"
           d="m 80,0 0,500"
           inkscape:connector-curvature="0" />
        <path
           id="path3435"
           inkscape:label="SubminorXDiv0:1:4"
           style="fill:none;stroke:#000000;stroke-width:0.30000001"
           d="m 90,0 0,500"
           inkscape:connector-curvature="0" />
        <path
           id="path3437"
           inkscape:label="SubminorXDiv1:0:1"
           style="fill:none;stroke:#000000;stroke-width:0.30000001"
           d="m 110,0 0,500"
           inkscape:connector-curvature="0" />
        <path
           id="path3439"
           inkscape:label="SubminorXDiv1:0:2"
           style="fill:none;stroke:#000000;stroke-width:0.30000001"
           d="m 120,0 0,500"
           inkscape:connector-curvature="0" />
        <path
           id="path3441"
           inkscape:label="SubminorXDiv1:0:3"
           style="fill:none;stroke:#000000;stroke-width:0.30000001"
           d="m 130,0 0,500"
           inkscape:connector-curvature="0" />
        <path
           id="path3443"
           inkscape:label="SubminorXDiv1:0:4"
           style="fill:none;stroke:#000000;stroke-width:0.30000001"
           d="m 140,0 0,500"
           inkscape:connector-curvature="0" />
        <path
           id="path3445"
           inkscape:label="SubminorXDiv1:1:1"
           style="fill:none;stroke:#000000;stroke-width:0.30000001"
           d="m 160,0 0,500"
           inkscape:connector-curvature="0" />
        <path
           id="path3447"
           inkscape:label="SubminorXDiv1:1:2"
           style="fill:none;stroke:#000000;stroke-width:0.30000001"
           d="m 170,0 0,500"
           inkscape:connector-curvature="0" />
        <path
           id="path3449"
           inkscape:label="SubminorXDiv1:1:3"
           style="fill:none;stroke:#000000;stroke-width:0.30000001"
           d="m 180,0 0,500"
           inkscape:connector-curvature="0" />
        <path
           id="path3451"
           inkscape:label="SubminorXDiv1:1:4"
           style="fill:none;stroke:#000000;stroke-width:0.30000001"
           d="m 190,0 0,500"
           inkscape:connector-curvature="0" />
        <path
           id="path3453"
           inkscape:label="SubminorXDiv2:0:1"
           style="fill:none;stroke:#000000;stroke-width:0.30000001"
           d="m 210,0 0,500"
           inkscape:connector-curvature="0" />
        <path
           id="path3455"
           inkscape:label="SubminorXDiv2:0:2"
           style="fill:none;stroke:#000000;stroke-width:0.30000001"
           d="m 220,0 0,500"
           inkscape:connector-curvature="0" />
        <path
           id="path3457"
           inkscape:label="SubminorXDiv2:0:3"
           style="fill:none;stroke:#000000;stroke-width:0.30000001"
           d="m 230,0 0,500"
           inkscape:connector-curvature="0" />
        <path
           id="path3459"
           inkscape:label="SubminorXDiv2:0:4"
           style="fill:none;stroke:#000000;stroke-width:0.30000001"
           d="m 240,0 0,500"
           inkscape:connector-curvature="0" />
        <path
           id="path3461"
           inkscape:label="SubminorXDiv2:1:1"
           style="fill:none;stroke:#000000;stroke-width:0.30000001"
           d="m 260,0 0,500"
           inkscape:connector-curvature="0" />
        <path
           id="path3463"
           inkscape:label="SubminorXDiv2:1:2"
           style="fill:none;stroke:#000000;stroke-width:0.30000001"
           d="m 270,0 0,500"
           inkscape:connector-curvature="0" />
        <path
           id="path3465"
           inkscape:label="SubminorXDiv2:1:3"
           style="fill:none;stroke:#000000;stroke-width:0.30000001"
           d="m 280,0 0,500"
           inkscape:connector-curvature="0" />
        <path
           id="path3467"
           inkscape:label="SubminorXDiv2:1:4"
           style="fill:none;stroke:#000000;stroke-width:0.30000001"
           d="m 290,0 0,500"
           inkscape:connector-curvature="0" />
        <path
           id="path3469"
           inkscape:label="SubminorXDiv3:0:1"
           style="fill:none;stroke:#000000;stroke-width:0.30000001"
           d="m 310,0 0,500"
           inkscape:connector-curvature="0" />
        <path
           id="path3471"
           inkscape:label="SubminorXDiv3:0:2"
           style="fill:none;stroke:#000000;stroke-width:0.30000001"
           d="m 320,0 0,500"
           inkscape:connector-curvature="0" />
        <path
           id="path3473"
           inkscape:label="SubminorXDiv3:0:3"
           style="fill:none;stroke:#000000;stroke-width:0.30000001"
           d="m 330,0 0,500"
           inkscape:connector-curvature="0" />
        <path
           id="path3475"
           inkscape:label="SubminorXDiv3:0:4"
           style="fill:none;stroke:#000000;stroke-width:0.30000001"
           d="m 340,0 0,500"
           inkscape:connector-curvature="0" />
        <path
           id="path3477"
           inkscape:label="SubminorXDiv3:1:1"
           style="fill:none;stroke:#000000;stroke-width:0.30000001"
           d="m 360,0 0,500"
           inkscape:connector-curvature="0" />
        <path
           id="path3479"
           inkscape:label="SubminorXDiv3:1:2"
           style="fill:none;stroke:#000000;stroke-width:0.30000001"
           d="m 370,0 0,500"
           inkscape:connector-curvature="0" />
        <path
           id="path3481"
           inkscape:label="SubminorXDiv3:1:3"
           style="fill:none;stroke:#000000;stroke-width:0.30000001"
           d="m 380,0 0,500"
           inkscape:connector-curvature="0" />
        <path
           id="path3483"
           inkscape:label="SubminorXDiv3:1:4"
           style="fill:none;stroke:#000000;stroke-width:0.30000001"
           d="m 390,0 0,500"
           inkscape:connector-curvature="0" />
        <path
           id="path3485"
           inkscape:label="SubminorXDiv4:0:1"
           style="fill:none;stroke:#000000;stroke-width:0.30000001"
           d="m 410,0 0,500"
           inkscape:connector-curvature="0" />
        <path
           id="path3487"
           inkscape:label="SubminorXDiv4:0:2"
           style="fill:none;stroke:#000000;stroke-width:0.30000001"
           d="m 420,0 0,500"
           inkscape:connector-curvature="0" />
        <path
           id="path3489"
           inkscape:label="SubminorXDiv4:0:3"
           style="fill:none;stroke:#000000;stroke-width:0.30000001"
           d="m 430,0 0,500"
           inkscape:connector-curvature="0" />
        <path
           id="path3491"
           inkscape:label="SubminorXDiv4:0:4"
           style="fill:none;stroke:#000000;stroke-width:0.30000001"
           d="m 440,0 0,500"
           inkscape:connector-curvature="0" />
        <path
           id="path3493"
           inkscape:label="SubminorXDiv4:1:1"
           style="fill:none;stroke:#000000;stroke-width:0.30000001"
           d="m 460,0 0,500"
           inkscape:connector-curvature="0" />
        <path
           id="path3495"
           inkscape:label="SubminorXDiv4:1:2"
           style="fill:none;stroke:#000000;stroke-width:0.30000001"
           d="m 470,0 0,500"
           inkscape:connector-curvature="0" />
        <path
           id="path3497"
           inkscape:label="SubminorXDiv4:1:3"
           style="fill:none;stroke:#000000;stroke-width:0.30000001"
           d="m 480,0 0,500"
           inkscape:connector-curvature="0" />
        <path
           id="path3499"
           inkscape:label="SubminorXDiv4:1:4"
           style="fill:none;stroke:#000000;stroke-width:0.30000001"
           d="m 490,0 0,500"
           inkscape:connector-curvature="0" />
        <path
           id="path3501"
           inkscape:label="SubminorXDiv5:0:1"
           style="fill:none;stroke:#000000;stroke-width:0.30000001"
           d="m 510,0 0,500"
           inkscape:connector-curvature="0" />
        <path
           id="path3503"
           inkscape:label="SubminorXDiv5:0:2"
           style="fill:none;stroke:#000000;stroke-width:0.30000001"
           d="m 520,0 0,500"
           inkscape:connector-curvature="0" />
        <path
           id="path3505"
           inkscape:label="SubminorXDiv5:0:3"
           style="fill:none;stroke:#000000;stroke-width:0.30000001"
           d="m 530,0 0,500"
           inkscape:connector-curvature="0" />
        <path
           id="path3507"
           inkscape:label="SubminorXDiv5:0:4"
           style="fill:none;stroke:#000000;stroke-width:0.30000001"
           d="m 540,0 0,500"
           inkscape:connector-curvature="0" />
        <path
           id="path3509"
           inkscape:label="SubminorXDiv5:1:1"
           style="fill:none;stroke:#000000;stroke-width:0.30000001"
           d="m 560,0 0,500"
           inkscape:connector-curvature="0" />
        <path
           id="path3511"
           inkscape:label="SubminorXDiv5:1:2"
           style="fill:none;stroke:#000000;stroke-width:0.30000001"
           d="m 570,0 0,500"
           inkscape:connector-curvature="0" />
        <path
           id="path3513"
           inkscape:label="SubminorXDiv5:1:3"
           style="fill:none;stroke:#000000;stroke-width:0.30000001"
           d="m 580,0 0,500"
           inkscape:connector-curvature="0" />
        <path
           id="path3515"
           inkscape:label="SubminorXDiv5:1:4"
           style="fill:none;stroke:#000000;stroke-width:0.30000001"
           d="m 590,0 0,500"
           inkscape:connector-curvature="0" />
      </g>
      <g
         id="g3517"
         inkscape:label="SubMinorYGridlines">
        <path
           id="path3519"
           inkscape:label="SubminorXDiv0:0:1"
           style="fill:none;stroke:#000000;stroke-width:0.30000001"
           d="m 0,20 600,0"
           inkscape:connector-curvature="0" />
        <path
           id="path3521"
           inkscape:label="SubminorXDiv0:0:2"
           style="fill:none;stroke:#000000;stroke-width:0.30000001"
           d="m 0,40 600,0"
           inkscape:connector-curvature="0" />
        <path
           id="path3523"
           inkscape:label="SubminorXDiv0:0:3"
           style="fill:none;stroke:#000000;stroke-width:0.30000001"
           d="m 0,60 600,0"
           inkscape:connector-curvature="0" />
        <path
           id="path3525"
           inkscape:label="SubminorXDiv0:0:4"
           style="fill:none;stroke:#000000;stroke-width:0.30000001"
           d="m 0,80 600,0"
           inkscape:connector-curvature="0" />
        <path
           id="path3527"
           inkscape:label="SubminorXDiv1:0:1"
           style="fill:none;stroke:#000000;stroke-width:0.30000001"
           d="m 0,120 600,0"
           inkscape:connector-curvature="0" />
        <path
           id="path3529"
           inkscape:label="SubminorXDiv1:0:2"
           style="fill:none;stroke:#000000;stroke-width:0.30000001"
           d="m 0,140 600,0"
           inkscape:connector-curvature="0" />
        <path
           id="path3531"
           inkscape:label="SubminorXDiv1:0:3"
           style="fill:none;stroke:#000000;stroke-width:0.30000001"
           d="m 0,160 600,0"
           inkscape:connector-curvature="0" />
        <path
           id="path3533"
           inkscape:label="SubminorXDiv1:0:4"
           style="fill:none;stroke:#000000;stroke-width:0.30000001"
           d="m 0,180 600,0"
           inkscape:connector-curvature="0" />
        <path
           id="path3535"
           inkscape:label="SubminorXDiv2:0:1"
           style="fill:none;stroke:#000000;stroke-width:0.30000001"
           d="m 0,220 600,0"
           inkscape:connector-curvature="0" />
        <path
           id="path3537"
           inkscape:label="SubminorXDiv2:0:2"
           style="fill:none;stroke:#000000;stroke-width:0.30000001"
           d="m 0,240 600,0"
           inkscape:connector-curvature="0" />
        <path
           id="path3539"
           inkscape:label="SubminorXDiv2:0:3"
           style="fill:none;stroke:#000000;stroke-width:0.30000001"
           d="m 0,260 600,0"
           inkscape:connector-curvature="0" />
        <path
           id="path3541"
           inkscape:label="SubminorXDiv2:0:4"
           style="fill:none;stroke:#000000;stroke-width:0.30000001"
           d="m 0,280 600,0"
           inkscape:connector-curvature="0" />
        <path
           id="path3543"
           inkscape:label="SubminorXDiv3:0:1"
           style="fill:none;stroke:#000000;stroke-width:0.30000001"
           d="m 0,320 600,0"
           inkscape:connector-curvature="0" />
        <path
           id="path3545"
           inkscape:label="SubminorXDiv3:0:2"
           style="fill:none;stroke:#000000;stroke-width:0.30000001"
           d="m 0,340 600,0"
           inkscape:connector-curvature="0" />
        <path
           id="path3547"
           inkscape:label="SubminorXDiv3:0:3"
           style="fill:none;stroke:#000000;stroke-width:0.30000001"
           d="m 0,360 600,0"
           inkscape:connector-curvature="0" />
        <path
           id="path3549"
           inkscape:label="SubminorXDiv3:0:4"
           style="fill:none;stroke:#000000;stroke-width:0.30000001"
           d="m 0,380 600,0"
           inkscape:connector-curvature="0" />
        <path
           id="path3551"
           inkscape:label="SubminorXDiv4:0:1"
           style="fill:none;stroke:#000000;stroke-width:0.30000001"
           d="m 0,420 600,0"
           inkscape:connector-curvature="0" />
        <path
           id="path3553"
           inkscape:label="SubminorXDiv4:0:2"
           style="fill:none;stroke:#000000;stroke-width:0.30000001"
           d="m 0,440 600,0"
           inkscape:connector-curvature="0" />
        <path
           id="path3555"
           inkscape:label="SubminorXDiv4:0:3"
           style="fill:none;stroke:#000000;stroke-width:0.30000001"
           d="m 0,460 600,0"
           inkscape:connector-curvature="0" />
        <path
           id="path3557"
           inkscape:label="SubminorXDiv4:0:4"
           style="fill:none;stroke:#000000;stroke-width:0.30000001"
           d="m 0,480 600,0"
           inkscape:connector-curvature="0" />
      </g>
      <rect
         id="rect3559"
         inkscape:label="Border"
         y="0"
         x="0"
         width="600"
         style="fill:none;stroke:#000000;stroke-width:3"
         height="500" />
    </g>
    <path
       d="M 0,0 0,32 M 1,0 1,32 M 2,0 2,32 M 3,0 3,32 M 4,0 4,32 M 5,0 5,32 M 6,0 6,32 M 7,0 7,32 M 8,0 8,32 M 9,0 9,32 M 10,0 10,32 M 11,0 11,32 M 12,0 12,32 M 13,0 13,32 M 14,0 14,32 M 15,0 15,32 M 16,0 16,32 M 17,0 17,32 M 18,0 18,32 M 19,0 19,32 M 20,0 20,32 M 21,0 21,32 M 22,0 22,32 M 23,0 23,32 M 24,0 24,32 M 25,0 25,32 M 26,0 26,32 M 27,0 27,32 M 28,0 28,32 M 29,0 29,32 M 30,0 30,32 M 31,0 31,32 M 32,0 32,32 M 0,0 32,0 M 0,1 32,1 M 0,2 32,2 M 0,3 32,3 M 0,4 32,4 M 0,5 32,5 M 0,6 32,6 M 0,7 32,7 M 0,8 32,8 M 0,9 32,9 m -32,1 32,0 m -32,1 32,0 m -32,1 32,0 m -32,1 32,0 m -32,1 32,0 m -32,1 32,0 m -32,1 32,0 m -32,1 32,0 m -32,1 32,0 m -32,1 32,0 m -32,1 32,0 m -32,1 32,0 m -32,1 32,0 m -32,1 32,0 m -32,1 32,0 m -32,1 32,0 m -32,1 32,0 m -32,1 32,0 m -32,1 32,0 m -32,1 32,0 m -32,1 32,0 m -32,1 32,0 m -32,1 32,0"
       style="fill:none;fill-opacity:0.75;fill-rule:evenodd;stroke:#000000;stroke-width:1pt;stroke-linecap:butt;stroke-linejoin:miter;stroke-opacity:1"
       id="path3658"
       inkscape:connector-curvature="0" />
    <rect
       style="opacity:0.75;fill:url(#linearGradient5764);fill-opacity:1;stroke:#a68156;stroke-width:0;stroke-linejoin:miter;stroke-miterlimit:4;stroke-dasharray:none;stroke-opacity:1"
       id="rect4468"
       width="21.999994"
       height="8.9999905"
       x="5.0000052"
       y="1024.3622" />
  </g>
</svg>
