<?xml version="1.0" encoding="UTF-8" standalone="no"?>
<!-- Created with Inkscape (http://www.inkscape.org/) -->

<svg
   xmlns:dc="http://purl.org/dc/elements/1.1/"
   xmlns:cc="http://creativecommons.org/ns#"
   xmlns:rdf="http://www.w3.org/1999/02/22-rdf-syntax-ns#"
   xmlns:svg="http://www.w3.org/2000/svg"
   xmlns="http://www.w3.org/2000/svg"
   xmlns:xlink="http://www.w3.org/1999/xlink"
   xmlns:sodipodi="http://sodipodi.sourceforge.net/DTD/sodipodi-0.dtd"
   xmlns:inkscape="http://www.inkscape.org/namespaces/inkscape"
   width="32"
   height="32"
   viewBox="0 0 32.000002 32"
   id="svg2"
   version="1.1"
   inkscape:version="0.91 r13725"
   sodipodi:docname="steel.svg"
   inkscape:export-xdpi="360"
   inkscape:export-ydpi="360">
  <sodipodi:namedview
     id="base"
     pagecolor="#ffffff"
     bordercolor="#666666"
     borderopacity="1.0"
     inkscape:pageopacity="0.0"
     inkscape:pageshadow="2"
     inkscape:zoom="15.839192"
     inkscape:cx="20.847267"
     inkscape:cy="14.675541"
     inkscape:document-units="px"
     inkscape:current-layer="layer1"
     showgrid="true"
     units="px"
     inkscape:window-width="1920"
     inkscape:window-height="1027"
     inkscape:window-x="0"
     inkscape:window-y="0"
     inkscape:window-maximized="1"
     showguides="false"
     objecttolerance="10000"
     inkscape:snap-global="true"
     inkscape:snap-bbox="false">
    <inkscape:grid
       type="xygrid"
       id="grid3660" />
  </sodipodi:namedview>
  <defs
     id="defs4">
    <linearGradient
       inkscape:collect="always"
       id="linearGradient5766">
      <stop
         style="stop-color:#000000;stop-opacity:1;"
         offset="0"
         id="stop5768" />
      <stop
         style="stop-color:#000000;stop-opacity:0;"
         offset="1"
         id="stop5770" />
    </linearGradient>
    <linearGradient
       inkscape:collect="always"
       id="linearGradient4996">
      <stop
         style="stop-color:#000000;stop-opacity:1;"
         offset="0"
         id="stop4998" />
      <stop
         style="stop-color:#000000;stop-opacity:0;"
         offset="1"
         id="stop5000" />
    </linearGradient>
    <linearGradient
       inkscape:collect="always"
       xlink:href="#linearGradient4996"
       id="linearGradient5002"
       x1="0.99999923"
       y1="1032.3622"
       x2="0.99999923"
       y2="1025.3622"
       gradientUnits="userSpaceOnUse" />
    <linearGradient
       gradientTransform="translate(24.000004,-1.0816849e-4)"
       inkscape:collect="always"
       xlink:href="#linearGradient4996"
       id="linearGradient5002-5"
       x1="0.99999923"
       y1="1032.3622"
       x2="0.99999923"
       y2="1025.3622"
       gradientUnits="userSpaceOnUse" />
    <linearGradient
       inkscape:collect="always"
       xlink:href="#linearGradient4996"
       id="linearGradient5333"
       x1="2.9999995"
       y1="1042.3622"
       x2="7.0000005"
       y2="1042.3622"
       gradientUnits="userSpaceOnUse" />
    <linearGradient
       gradientTransform="translate(-32.000003,-1.5664654e-4)"
       inkscape:collect="always"
       xlink:href="#linearGradient4996"
       id="linearGradient5333-1"
       x1="2.9999995"
       y1="1042.3622"
       x2="7.0000005"
       y2="1042.3622"
       gradientUnits="userSpaceOnUse" />
    <filter
       inkscape:collect="always"
       style="color-interpolation-filters:sRGB"
       id="filter5611"
       x="-1.0214821"
       width="3.0429643"
       y="-0.063744221"
       height="1.1274884">
      <feGaussianBlur
         inkscape:collect="always"
         stdDeviation="0.42561847"
         id="feGaussianBlur5613" />
    </filter>
    <filter
       inkscape:collect="always"
       style="color-interpolation-filters:sRGB"
       id="filter5623"
       x="-1.0176941"
       width="3.0353882"
       y="-0.063759031"
       height="1.1275181">
      <feGaussianBlur
         inkscape:collect="always"
         stdDeviation="0.42404022"
         id="feGaussianBlur5625" />
    </filter>
    <linearGradient
       inkscape:collect="always"
       xlink:href="#linearGradient5766"
       id="linearGradient5764"
       x1="16.000002"
       y1="1033.3622"
       x2="16.000002"
       y2="1022.3622"
       gradientUnits="userSpaceOnUse" />
  </defs>
  <metadata
     id="metadata7">
    <rdf:RDF>
      <cc:Work
         rdf:about="">
        <dc:format>image/svg+xml</dc:format>
        <dc:type
           rdf:resource="http://purl.org/dc/dcmitype/StillImage" />
        <dc:title></dc:title>
      </cc:Work>
    </rdf:RDF>
  </metadata>
  <g
     transform="translate(0,-1020.3622)"
     id="layer1"
     inkscape:groupmode="layer"
     inkscape:label="Layer 1">
    <path
       id="path3366"
       style="fill:none;fill-opacity:0.75000000;fill-rule:evenodd;stroke:#000000;stroke-linecap:butt;stroke-linejoin:miter;stroke-opacity:1.0000000;stroke-width:1pt"
       d="m 1.3309013,0.43778965 0,8.00793215 m 1,-8.00793215 0,8.00793215 m 1,-8.00793215 0,8.00793215 m 1,-8.00793215 0,8.00793215 m 1,-8.00793215 0,8.00793215 m -4,-8.00793215 4.7619992,0 m -4.7619992,0.99999995 4.7619992,0 m -4.7619992,1 4.7619992,0 m -4.7619992,1 4.7619992,0 m -4.7619992,1 4.7619992,0 m -4.7619992,1 4.7619992,0 m -4.7619992,1 4.7619992,0 m -4.7619992,1 4.7619992,0 m -4.7619992,1 4.7619992,0" />
    <path
       id="path3368"
       style="fill:none;fill-opacity:0.75000000;fill-rule:evenodd;stroke:#000000;stroke-linecap:butt;stroke-linejoin:miter;stroke-opacity:1.0000000;stroke-width:1pt"
       d="m 1.3309013,0.43778965 0,8.00793215 m 1,-8.00793215 0,8.00793215 m 1,-8.00793215 0,8.00793215 m 1,-8.00793215 0,8.00793215 m 1,-8.00793215 0,8.00793215 m -4,-8.00793215 4.7619992,0 m -4.7619992,0.99999995 4.7619992,0 m -4.7619992,1 4.7619992,0 m -4.7619992,1 4.7619992,0 m -4.7619992,1 4.7619992,0 m -4.7619992,1 4.7619992,0 m -4.7619992,1 4.7619992,0 m -4.7619992,1 4.7619992,0 m -4.7619992,1 4.7619992,0" />
    <path
       id="path3370"
       style="fill:none;fill-opacity:0.75000000;fill-rule:evenodd;stroke:#000000;stroke-linecap:butt;stroke-linejoin:miter;stroke-opacity:1.0000000;stroke-width:1pt"
       d="m 1.3309013,0.43778965 0,8.00793215 m 1,-8.00793215 0,8.00793215 m 1,-8.00793215 0,8.00793215 m 1,-8.00793215 0,8.00793215 m 1,-8.00793215 0,8.00793215 m -4,-8.00793215 4.7619992,0 m -4.7619992,0.99999995 4.7619992,0 m -4.7619992,1 4.7619992,0 m -4.7619992,1 4.7619992,0 m -4.7619992,1 4.7619992,0 m -4.7619992,1 4.7619992,0 m -4.7619992,1 4.7619992,0 m -4.7619992,1 4.7619992,0 m -4.7619992,1 4.7619992,0" />
    <g
       id="g3381"
       inkscape:label="Grid_Polar:X6:Y5"
       transform="translate(-291.8784026,-230.713687)">
      <g
         id="g3383"
         inkscape:label="MajorXGridlines">
        <path
           id="path3385"
           inkscape:label="MajorXDiv1"
           style="stroke:#000000;stroke-width:2.0;fill:none"
           d="M 100.0,0 L 100.0,500.0" />
        <path
           id="path3387"
           inkscape:label="MajorXDiv2"
           style="stroke:#000000;stroke-width:2.0;fill:none"
           d="M 200.0,0 L 200.0,500.0" />
        <path
           id="path3389"
           inkscape:label="MajorXDiv3"
           style="stroke:#000000;stroke-width:2.0;fill:none"
           d="M 300.0,0 L 300.0,500.0" />
        <path
           id="path3391"
           inkscape:label="MajorXDiv4"
           style="stroke:#000000;stroke-width:2.0;fill:none"
           d="M 400.0,0 L 400.0,500.0" />
        <path
           id="path3393"
           inkscape:label="MajorXDiv5"
           style="stroke:#000000;stroke-width:2.0;fill:none"
           d="M 500.0,0 L 500.0,500.0" />
      </g>
      <g
         id="g3395"
         inkscape:label="MajorYGridlines">
        <path
           id="path3397"
           inkscape:label="MajorYDiv1"
           style="stroke:#000000;stroke-width:2.0;fill:none"
           d="M 0,100.0 L 600.0,100.0" />
        <path
           id="path3399"
           inkscape:label="MajorYDiv2"
           style="stroke:#000000;stroke-width:2.0;fill:none"
           d="M 0,200.0 L 600.0,200.0" />
        <path
           id="path3401"
           inkscape:label="MajorYDiv3"
           style="stroke:#000000;stroke-width:2.0;fill:none"
           d="M 0,300.0 L 600.0,300.0" />
        <path
           id="path3403"
           inkscape:label="MajorYDiv4"
           style="stroke:#000000;stroke-width:2.0;fill:none"
           d="M 0,400.0 L 600.0,400.0" />
      </g>
      <g
         id="g3405"
         inkscape:label="MinorXGridlines">
        <path
           id="path3407"
           inkscape:label="MinorXDiv0:1"
           style="stroke:#000000;stroke-width:1.0;fill:none"
           d="M 50.0,0 L 50.0,500.0" />
        <path
           id="path3409"
           inkscape:label="MinorXDiv1:1"
           style="stroke:#000000;stroke-width:1.0;fill:none"
           d="M 150.0,0 L 150.0,500.0" />
        <path
           id="path3411"
           inkscape:label="MinorXDiv2:1"
           style="stroke:#000000;stroke-width:1.0;fill:none"
           d="M 250.0,0 L 250.0,500.0" />
        <path
           id="path3413"
           inkscape:label="MinorXDiv3:1"
           style="stroke:#000000;stroke-width:1.0;fill:none"
           d="M 350.0,0 L 350.0,500.0" />
        <path
           id="path3415"
           inkscape:label="MinorXDiv4:1"
           style="stroke:#000000;stroke-width:1.0;fill:none"
           d="M 450.0,0 L 450.0,500.0" />
        <path
           id="path3417"
           inkscape:label="MinorXDiv5:1"
           style="stroke:#000000;stroke-width:1.0;fill:none"
           d="M 550.0,0 L 550.0,500.0" />
      </g>
      <g
         id="g3419"
         inkscape:label="SubMinorXGridlines">
        <path
           id="path3421"
           inkscape:label="SubminorXDiv0:0:1"
           style="stroke:#000000;stroke-width:0.300000011921;fill:none"
           d="M 10.0,0 L 10.0,500.0" />
        <path
           id="path3423"
           inkscape:label="SubminorXDiv0:0:2"
           style="stroke:#000000;stroke-width:0.300000011921;fill:none"
           d="M 20.0,0 L 20.0,500.0" />
        <path
           id="path3425"
           inkscape:label="SubminorXDiv0:0:3"
           style="stroke:#000000;stroke-width:0.300000011921;fill:none"
           d="M 30.0,0 L 30.0,500.0" />
        <path
           id="path3427"
           inkscape:label="SubminorXDiv0:0:4"
           style="stroke:#000000;stroke-width:0.300000011921;fill:none"
           d="M 40.0,0 L 40.0,500.0" />
        <path
           id="path3429"
           inkscape:label="SubminorXDiv0:1:1"
           style="stroke:#000000;stroke-width:0.300000011921;fill:none"
           d="M 60.0,0 L 60.0,500.0" />
        <path
           id="path3431"
           inkscape:label="SubminorXDiv0:1:2"
           style="stroke:#000000;stroke-width:0.300000011921;fill:none"
           d="M 70.0,0 L 70.0,500.0" />
        <path
           id="path3433"
           inkscape:label="SubminorXDiv0:1:3"
           style="stroke:#000000;stroke-width:0.300000011921;fill:none"
           d="M 80.0,0 L 80.0,500.0" />
        <path
           id="path3435"
           inkscape:label="SubminorXDiv0:1:4"
           style="stroke:#000000;stroke-width:0.300000011921;fill:none"
           d="M 90.0,0 L 90.0,500.0" />
        <path
           id="path3437"
           inkscape:label="SubminorXDiv1:0:1"
           style="stroke:#000000;stroke-width:0.300000011921;fill:none"
           d="M 110.0,0 L 110.0,500.0" />
        <path
           id="path3439"
           inkscape:label="SubminorXDiv1:0:2"
           style="stroke:#000000;stroke-width:0.300000011921;fill:none"
           d="M 120.0,0 L 120.0,500.0" />
        <path
           id="path3441"
           inkscape:label="SubminorXDiv1:0:3"
           style="stroke:#000000;stroke-width:0.300000011921;fill:none"
           d="M 130.0,0 L 130.0,500.0" />
        <path
           id="path3443"
           inkscape:label="SubminorXDiv1:0:4"
           style="stroke:#000000;stroke-width:0.300000011921;fill:none"
           d="M 140.0,0 L 140.0,500.0" />
        <path
           id="path3445"
           inkscape:label="SubminorXDiv1:1:1"
           style="stroke:#000000;stroke-width:0.300000011921;fill:none"
           d="M 160.0,0 L 160.0,500.0" />
        <path
           id="path3447"
           inkscape:label="SubminorXDiv1:1:2"
           style="stroke:#000000;stroke-width:0.300000011921;fill:none"
           d="M 170.0,0 L 170.0,500.0" />
        <path
           id="path3449"
           inkscape:label="SubminorXDiv1:1:3"
           style="stroke:#000000;stroke-width:0.300000011921;fill:none"
           d="M 180.0,0 L 180.0,500.0" />
        <path
           id="path3451"
           inkscape:label="SubminorXDiv1:1:4"
           style="stroke:#000000;stroke-width:0.300000011921;fill:none"
           d="M 190.0,0 L 190.0,500.0" />
        <path
           id="path3453"
           inkscape:label="SubminorXDiv2:0:1"
           style="stroke:#000000;stroke-width:0.300000011921;fill:none"
           d="M 210.0,0 L 210.0,500.0" />
        <path
           id="path3455"
           inkscape:label="SubminorXDiv2:0:2"
           style="stroke:#000000;stroke-width:0.300000011921;fill:none"
           d="M 220.0,0 L 220.0,500.0" />
        <path
           id="path3457"
           inkscape:label="SubminorXDiv2:0:3"
           style="stroke:#000000;stroke-width:0.300000011921;fill:none"
           d="M 230.0,0 L 230.0,500.0" />
        <path
           id="path3459"
           inkscape:label="SubminorXDiv2:0:4"
           style="stroke:#000000;stroke-width:0.300000011921;fill:none"
           d="M 240.0,0 L 240.0,500.0" />
        <path
           id="path3461"
           inkscape:label="SubminorXDiv2:1:1"
           style="stroke:#000000;stroke-width:0.300000011921;fill:none"
           d="M 260.0,0 L 260.0,500.0" />
        <path
           id="path3463"
           inkscape:label="SubminorXDiv2:1:2"
           style="stroke:#000000;stroke-width:0.300000011921;fill:none"
           d="M 270.0,0 L 270.0,500.0" />
        <path
           id="path3465"
           inkscape:label="SubminorXDiv2:1:3"
           style="stroke:#000000;stroke-width:0.300000011921;fill:none"
           d="M 280.0,0 L 280.0,500.0" />
        <path
           id="path3467"
           inkscape:label="SubminorXDiv2:1:4"
           style="stroke:#000000;stroke-width:0.300000011921;fill:none"
           d="M 290.0,0 L 290.0,500.0" />
        <path
           id="path3469"
           inkscape:label="SubminorXDiv3:0:1"
           style="stroke:#000000;stroke-width:0.300000011921;fill:none"
           d="M 310.0,0 L 310.0,500.0" />
        <path
           id="path3471"
           inkscape:label="SubminorXDiv3:0:2"
           style="stroke:#000000;stroke-width:0.300000011921;fill:none"
           d="M 320.0,0 L 320.0,500.0" />
        <path
           id="path3473"
           inkscape:label="SubminorXDiv3:0:3"
           style="stroke:#000000;stroke-width:0.300000011921;fill:none"
           d="M 330.0,0 L 330.0,500.0" />
        <path
           id="path3475"
           inkscape:label="SubminorXDiv3:0:4"
           style="stroke:#000000;stroke-width:0.300000011921;fill:none"
           d="M 340.0,0 L 340.0,500.0" />
        <path
           id="path3477"
           inkscape:label="SubminorXDiv3:1:1"
           style="stroke:#000000;stroke-width:0.300000011921;fill:none"
           d="M 360.0,0 L 360.0,500.0" />
        <path
           id="path3479"
           inkscape:label="SubminorXDiv3:1:2"
           style="stroke:#000000;stroke-width:0.300000011921;fill:none"
           d="M 370.0,0 L 370.0,500.0" />
        <path
           id="path3481"
           inkscape:label="SubminorXDiv3:1:3"
           style="stroke:#000000;stroke-width:0.300000011921;fill:none"
           d="M 380.0,0 L 380.0,500.0" />
        <path
           id="path3483"
           inkscape:label="SubminorXDiv3:1:4"
           style="stroke:#000000;stroke-width:0.300000011921;fill:none"
           d="M 390.0,0 L 390.0,500.0" />
        <path
           id="path3485"
           inkscape:label="SubminorXDiv4:0:1"
           style="stroke:#000000;stroke-width:0.300000011921;fill:none"
           d="M 410.0,0 L 410.0,500.0" />
        <path
           id="path3487"
           inkscape:label="SubminorXDiv4:0:2"
           style="stroke:#000000;stroke-width:0.300000011921;fill:none"
           d="M 420.0,0 L 420.0,500.0" />
        <path
           id="path3489"
           inkscape:label="SubminorXDiv4:0:3"
           style="stroke:#000000;stroke-width:0.300000011921;fill:none"
           d="M 430.0,0 L 430.0,500.0" />
        <path
           id="path3491"
           inkscape:label="SubminorXDiv4:0:4"
           style="stroke:#000000;stroke-width:0.300000011921;fill:none"
           d="M 440.0,0 L 440.0,500.0" />
        <path
           id="path3493"
           inkscape:label="SubminorXDiv4:1:1"
           style="stroke:#000000;stroke-width:0.300000011921;fill:none"
           d="M 460.0,0 L 460.0,500.0" />
        <path
           id="path3495"
           inkscape:label="SubminorXDiv4:1:2"
           style="stroke:#000000;stroke-width:0.300000011921;fill:none"
           d="M 470.0,0 L 470.0,500.0" />
        <path
           id="path3497"
           inkscape:label="SubminorXDiv4:1:3"
           style="stroke:#000000;stroke-width:0.300000011921;fill:none"
           d="M 480.0,0 L 480.0,500.0" />
        <path
           id="path3499"
           inkscape:label="SubminorXDiv4:1:4"
           style="stroke:#000000;stroke-width:0.300000011921;fill:none"
           d="M 490.0,0 L 490.0,500.0" />
        <path
           id="path3501"
           inkscape:label="SubminorXDiv5:0:1"
           style="stroke:#000000;stroke-width:0.300000011921;fill:none"
           d="M 510.0,0 L 510.0,500.0" />
        <path
           id="path3503"
           inkscape:label="SubminorXDiv5:0:2"
           style="stroke:#000000;stroke-width:0.300000011921;fill:none"
           d="M 520.0,0 L 520.0,500.0" />
        <path
           id="path3505"
           inkscape:label="SubminorXDiv5:0:3"
           style="stroke:#000000;stroke-width:0.300000011921;fill:none"
           d="M 530.0,0 L 530.0,500.0" />
        <path
           id="path3507"
           inkscape:label="SubminorXDiv5:0:4"
           style="stroke:#000000;stroke-width:0.300000011921;fill:none"
           d="M 540.0,0 L 540.0,500.0" />
        <path
           id="path3509"
           inkscape:label="SubminorXDiv5:1:1"
           style="stroke:#000000;stroke-width:0.300000011921;fill:none"
           d="M 560.0,0 L 560.0,500.0" />
        <path
           id="path3511"
           inkscape:label="SubminorXDiv5:1:2"
           style="stroke:#000000;stroke-width:0.300000011921;fill:none"
           d="M 570.0,0 L 570.0,500.0" />
        <path
           id="path3513"
           inkscape:label="SubminorXDiv5:1:3"
           style="stroke:#000000;stroke-width:0.300000011921;fill:none"
           d="M 580.0,0 L 580.0,500.0" />
        <path
           id="path3515"
           inkscape:label="SubminorXDiv5:1:4"
           style="stroke:#000000;stroke-width:0.300000011921;fill:none"
           d="M 590.0,0 L 590.0,500.0" />
      </g>
      <g
         id="g3517"
         inkscape:label="SubMinorYGridlines">
        <path
           id="path3519"
           inkscape:label="SubminorXDiv0:0:1"
           style="stroke:#000000;stroke-width:0.300000011921;fill:none"
           d="M 0,20.0 L 600.0,20.0" />
        <path
           id="path3521"
           inkscape:label="SubminorXDiv0:0:2"
           style="stroke:#000000;stroke-width:0.300000011921;fill:none"
           d="M 0,40.0 L 600.0,40.0" />
        <path
           id="path3523"
           inkscape:label="SubminorXDiv0:0:3"
           style="stroke:#000000;stroke-width:0.300000011921;fill:none"
           d="M 0,60.0 L 600.0,60.0" />
        <path
           id="path3525"
           inkscape:label="SubminorXDiv0:0:4"
           style="stroke:#000000;stroke-width:0.300000011921;fill:none"
           d="M 0,80.0 L 600.0,80.0" />
        <path
           id="path3527"
           inkscape:label="SubminorXDiv1:0:1"
           style="stroke:#000000;stroke-width:0.300000011921;fill:none"
           d="M 0,120.0 L 600.0,120.0" />
        <path
           id="path3529"
           inkscape:label="SubminorXDiv1:0:2"
           style="stroke:#000000;stroke-width:0.300000011921;fill:none"
           d="M 0,140.0 L 600.0,140.0" />
        <path
           id="path3531"
           inkscape:label="SubminorXDiv1:0:3"
           style="stroke:#000000;stroke-width:0.300000011921;fill:none"
           d="M 0,160.0 L 600.0,160.0" />
        <path
           id="path3533"
           inkscape:label="SubminorXDiv1:0:4"
           style="stroke:#000000;stroke-width:0.300000011921;fill:none"
           d="M 0,180.0 L 600.0,180.0" />
        <path
           id="path3535"
           inkscape:label="SubminorXDiv2:0:1"
           style="stroke:#000000;stroke-width:0.300000011921;fill:none"
           d="M 0,220.0 L 600.0,220.0" />
        <path
           id="path3537"
           inkscape:label="SubminorXDiv2:0:2"
           style="stroke:#000000;stroke-width:0.300000011921;fill:none"
           d="M 0,240.0 L 600.0,240.0" />
        <path
           id="path3539"
           inkscape:label="SubminorXDiv2:0:3"
           style="stroke:#000000;stroke-width:0.300000011921;fill:none"
           d="M 0,260.0 L 600.0,260.0" />
        <path
           id="path3541"
           inkscape:label="SubminorXDiv2:0:4"
           style="stroke:#000000;stroke-width:0.300000011921;fill:none"
           d="M 0,280.0 L 600.0,280.0" />
        <path
           id="path3543"
           inkscape:label="SubminorXDiv3:0:1"
           style="stroke:#000000;stroke-width:0.300000011921;fill:none"
           d="M 0,320.0 L 600.0,320.0" />
        <path
           id="path3545"
           inkscape:label="SubminorXDiv3:0:2"
           style="stroke:#000000;stroke-width:0.300000011921;fill:none"
           d="M 0,340.0 L 600.0,340.0" />
        <path
           id="path3547"
           inkscape:label="SubminorXDiv3:0:3"
           style="stroke:#000000;stroke-width:0.300000011921;fill:none"
           d="M 0,360.0 L 600.0,360.0" />
        <path
           id="path3549"
           inkscape:label="SubminorXDiv3:0:4"
           style="stroke:#000000;stroke-width:0.300000011921;fill:none"
           d="M 0,380.0 L 600.0,380.0" />
        <path
           id="path3551"
           inkscape:label="SubminorXDiv4:0:1"
           style="stroke:#000000;stroke-width:0.300000011921;fill:none"
           d="M 0,420.0 L 600.0,420.0" />
        <path
           id="path3553"
           inkscape:label="SubminorXDiv4:0:2"
           style="stroke:#000000;stroke-width:0.300000011921;fill:none"
           d="M 0,440.0 L 600.0,440.0" />
        <path
           id="path3555"
           inkscape:label="SubminorXDiv4:0:3"
           style="stroke:#000000;stroke-width:0.300000011921;fill:none"
           d="M 0,460.0 L 600.0,460.0" />
        <path
           id="path3557"
           inkscape:label="SubminorXDiv4:0:4"
           style="stroke:#000000;stroke-width:0.300000011921;fill:none"
           d="M 0,480.0 L 600.0,480.0" />
      </g>
      <rect
         id="rect3559"
         inkscape:label="Border"
         y="0"
         x="0"
         width="600.0"
         style="stroke:#000000;stroke-width:3.0;fill:none"
         height="500.0" />
    </g>
    <path
       d="M 0,0 0,32 M 1,0 1,32 M 2,0 2,32 M 3,0 3,32 M 4,0 4,32 M 5,0 5,32 M 6,0 6,32 M 7,0 7,32 M 8,0 8,32 M 9,0 9,32 M 10,0 10,32 M 11,0 11,32 M 12,0 12,32 M 13,0 13,32 M 14,0 14,32 M 15,0 15,32 M 16,0 16,32 M 17,0 17,32 M 18,0 18,32 M 19,0 19,32 M 20,0 20,32 M 21,0 21,32 M 22,0 22,32 M 23,0 23,32 M 24,0 24,32 M 25,0 25,32 M 26,0 26,32 M 27,0 27,32 M 28,0 28,32 M 29,0 29,32 M 30,0 30,32 M 31,0 31,32 M 32,0 32,32 M 0,0 32,0 M 0,1 32,1 M 0,2 32,2 M 0,3 32,3 M 0,4 32,4 M 0,5 32,5 M 0,6 32,6 M 0,7 32,7 M 0,8 32,8 M 0,9 32,9 m -32,1 32,0 m -32,1 32,0 m -32,1 32,0 m -32,1 32,0 m -32,1 32,0 m -32,1 32,0 m -32,1 32,0 m -32,1 32,0 m -32,1 32,0 m -32,1 32,0 m -32,1 32,0 m -32,1 32,0 m -32,1 32,0 m -32,1 32,0 m -32,1 32,0 m -32,1 32,0 m -32,1 32,0 m -32,1 32,0 m -32,1 32,0 m -32,1 32,0 m -32,1 32,0 m -32,1 32,0 m -32,1 32,0"
       style="fill:none;fill-opacity:0.75000000;fill-rule:evenodd;stroke:#000000;stroke-linecap:butt;stroke-linejoin:miter;stroke-opacity:1.0000000;stroke-width:1pt"
       id="path3658" />
    <rect
       style="fill:#81837a;fill-opacity:1;stroke:#a68156;stroke-width:0;stroke-linejoin:miter;stroke-miterlimit:4;stroke-dasharray:none;stroke-opacity:1"
       id="rect3666"
       width="25.999994"
       height="28"
       x="3.0000045"
       y="1022.3622" />
    <rect
       style="fill:url(#linearGradient5764);fill-opacity:1;stroke:#a68156;stroke-width:0;stroke-linejoin:miter;stroke-miterlimit:4;stroke-dasharray:none;stroke-opacity:1;opacity:0.75"
       id="rect4468"
       width="21.999994"
       height="8.9999905"
       x="5.0000052"
       y="1024.3622" />
    <rect
       style="fill:#000000;fill-opacity:0.50196081;stroke:#a68156;stroke-width:0;stroke-linejoin:miter;stroke-miterlimit:4;stroke-dasharray:none;stroke-opacity:1;filter:url(#filter5611)"
       id="rect4474"
       width="1.0000021"
       height="16.024736"
       x="9.9999981"
       y="1034.3372" />
    <rect
       style="fill:#000000;fill-opacity:0.50196081;stroke:#a68156;stroke-width:0;stroke-linejoin:miter;stroke-miterlimit:4;stroke-dasharray:none;stroke-opacity:1;filter:url(#filter5623)"
       id="rect4474-3"
       width="1.0000024"
       height="15.961606"
       x="21.000006"
       y="1034.4005" />
    <rect
       style="fill:#000000;fill-opacity:1;stroke:#a68156;stroke-width:0;stroke-linejoin:miter;stroke-miterlimit:4;stroke-dasharray:none;stroke-opacity:1;opacity:0.5"
       id="rect4472"
       width="25.999994"
       height="1"
       x="3.0000045"
       y="1033.3619" />
    <rect
       style="fill:url(#linearGradient5002);fill-opacity:1;opacity:0.5"
       id="rect4994"
       width="2"
       height="11"
       x="2.999999"
       y="1022.3622" />
    <rect
       style="opacity:0.5;fill:url(#linearGradient5002-5);fill-opacity:1"
       id="rect4994-9"
       width="2.0000005"
       height="11.000001"
       x="27.000004"
       y="1022.3622" />
    <rect
       style="opacity:0.25;fill:url(#linearGradient5333);fill-opacity:1"
       id="rect5317"
       width="7"
       height="16"
       x="2.999999"
       y="1034.3622" />
    <rect
       style="opacity:0.25;fill:url(#linearGradient5333-1);fill-opacity:1"
       id="rect5317-0"
       width="7.0000014"
       height="16.000002"
       x="-29.000004"
       y="1034.3622"
       transform="scale(-1,1)" />
  </g>
</svg>
